<svg width="638" height="636" fill="none" xmlns="http://www.w3.org/2000/svg"><path d="M391.419 399.371c-3.023-7.662 1.208-13.932 9.401-13.932s11.531-5.842 7.418-12.973l-80.763-140.115c-4.113-7.135-10.843-7.135-14.956 0l-80.764 140.111c-4.113 7.135-.747 12.973 7.478 12.973h96.468c8.226 0 14.12-1.45 13.1-3.222l-9.342-16.193-1.835-3.182c-4.113-7.135-7.508-12.973-7.545-12.973-.038 0-2.526-4.265-5.534-9.477-3.008-5.211-3.781-5.213-1.724 0 2.056 5.214-2.992 9.477-11.218 9.477h-16.724c-8.225 0-11.591-5.842-7.478-12.973l23.332-40.479c4.111-7.135 5.731-17.402 3.597-22.813-2.134-5.411-.516-4.001 3.589 3.134l3.641 6.316 7.478 12.976c0 .002 3.361 5.843 7.478 12.977l16.075 27.889c4.113 7.135 7.478 12.973 7.462 12.973-.017 0 3.35 5.842 7.463 12.973l1.833 3.182 9.336 16.196a359.8 359.8 0 001.868 3.222c.006 0 3.377 5.842 7.49 12.973l2.021 3.507c4.113 7.135 5.005 6.704 1.983-.959l-.628-1.588z" fill="url(#paint0_angular)"/><g filter="url(#filter0_d)"><circle cx="320" cy="317" r="295" stroke="#004D73" stroke-width="24"/></g><g filter="url(#filter1_d)"><path d="M25 317c0 12.876.825 25.559 2.425 38" stroke="#fff" stroke-width="30" stroke-linecap="round"/></g><g filter="url(#filter2_d)"><path d="M25 317c0 41.375 8.518 80.761 23.896 116.5" stroke="#C1EBFF" stroke-width="29" stroke-linecap="round"/></g><g filter="url(#filter3_d)"><path d="M25 317c0 162.924 132.076 295 295 295s295-132.076 295-295c0-67.764-22.848-130.192-61.262-180" stroke="#006393" stroke-width="25" stroke-linecap="round"/></g><g filter="url(#filter4_d)"><path d="M25 317c0 162.924 132.076 295 295 295 116.863 0 217.854-67.952 265.617-166.5" stroke="#1B9EDE" stroke-width="26" stroke-linecap="round"/></g><g filter="url(#filter5_d)"><path d="M25 317c0 162.924 132.076 295 295 295 17.043 0 33.748-1.445 50-4.22" stroke="#3DBCFA" stroke-width="27" stroke-linecap="round"/></g><g filter="url(#filter6_d)"><path d="M25 317c0 98.74 48.511 186.15 123 239.696" stroke="#77D2FF" stroke-width="28" stroke-linecap="round"/></g><defs><filter id="filter0_d" x="3" y="0" width="634" height="634" filterUnits="userSpaceOnUse" color-interpolation-filters="sRGB"><feFlood flood-opacity="0" result="BackgroundImageFix"/><feColorMatrix in="SourceAlpha" values="0 0 0 0 0 0 0 0 0 0 0 0 0 0 0 0 0 0 127 0"/><feOffset/><feGaussianBlur stdDeviation="5"/><feColorMatrix values="0 0 0 0 0.0627451 0 0 0 0 0.0823529 0 0 0 0 0.145098 0 0 0 1 0"/><feBlend in2="BackgroundImageFix" result="effect1_dropShadow"/><feBlend in="SourceGraphic" in2="effect1_dropShadow" result="shape"/></filter><filter id="filter1_d" x="0" y="292" width="52.426" height="88.002" filterUnits="userSpaceOnUse" color-interpolation-filters="sRGB"><feFlood flood-opacity="0" result="BackgroundImageFix"/><feColorMatrix in="SourceAlpha" values="0 0 0 0 0 0 0 0 0 0 0 0 0 0 0 0 0 0 127 0"/><feOffset/><feGaussianBlur stdDeviation="5"/><feColorMatrix values="0 0 0 0 0.0627451 0 0 0 0 0.0823529 0 0 0 0 0.145098 0 0 0 0.5 0"/><feBlend in2="BackgroundImageFix" result="effect1_dropShadow"/><feBlend in="SourceGraphic" in2="effect1_dropShadow" result="shape"/></filter><filter id="filter2_d" x=".5" y="292.5" width="72.9" height="165.504" filterUnits="userSpaceOnUse" color-interpolation-filters="sRGB"><feFlood flood-opacity="0" result="BackgroundImageFix"/><feColorMatrix in="SourceAlpha" values="0 0 0 0 0 0 0 0 0 0 0 0 0 0 0 0 0 0 127 0"/><feOffset/><feGaussianBlur stdDeviation="5"/><feColorMatrix values="0 0 0 0 0.0627451 0 0 0 0 0.0823529 0 0 0 0 0.145098 0 0 0 0.5 0"/><feBlend in2="BackgroundImageFix" result="effect1_dropShadow"/><feBlend in="SourceGraphic" in2="effect1_dropShadow" result="shape"/></filter><filter id="filter3_d" x="2.5" y="114.499" width="635" height="520.001" filterUnits="userSpaceOnUse" color-interpolation-filters="sRGB"><feFlood flood-opacity="0" result="BackgroundImageFix"/><feColorMatrix in="SourceAlpha" values="0 0 0 0 0 0 0 0 0 0 0 0 0 0 0 0 0 0 127 0"/><feOffset/><feGaussianBlur stdDeviation="5"/><feColorMatrix values="0 0 0 0 0.0627451 0 0 0 0 0.0823529 0 0 0 0 0.145098 0 0 0 0.5 0"/><feBlend in2="BackgroundImageFix" result="effect1_dropShadow"/><feBlend in="SourceGraphic" in2="effect1_dropShadow" result="shape"/></filter><filter id="filter4_d" x="2" y="294" width="606.62" height="341" filterUnits="userSpaceOnUse" color-interpolation-filters="sRGB"><feFlood flood-opacity="0" result="BackgroundImageFix"/><feColorMatrix in="SourceAlpha" values="0 0 0 0 0 0 0 0 0 0 0 0 0 0 0 0 0 0 127 0"/><feOffset/><feGaussianBlur stdDeviation="5"/><feColorMatrix values="0 0 0 0 0.0627451 0 0 0 0 0.0823529 0 0 0 0 0.145098 0 0 0 0.5 0"/><feBlend in2="BackgroundImageFix" result="effect1_dropShadow"/><feBlend in="SourceGraphic" in2="effect1_dropShadow" result="shape"/></filter><filter id="filter5_d" x="1.5" y="293.5" width="392.002" height="342" filterUnits="userSpaceOnUse" color-interpolation-filters="sRGB"><feFlood flood-opacity="0" result="BackgroundImageFix"/><feColorMatrix in="SourceAlpha" values="0 0 0 0 0 0 0 0 0 0 0 0 0 0 0 0 0 0 127 0"/><feOffset/><feGaussianBlur stdDeviation="5"/><feColorMatrix values="0 0 0 0 0.0627451 0 0 0 0 0.0823529 0 0 0 0 0.145098 0 0 0 0.5 0"/><feBlend in2="BackgroundImageFix" result="effect1_dropShadow"/><feBlend in="SourceGraphic" in2="effect1_dropShadow" result="shape"/></filter><filter id="filter6_d" x="1" y="293" width="171.001" height="287.697" filterUnits="userSpaceOnUse" color-interpolation-filters="sRGB"><feFlood flood-opacity="0" result="BackgroundImageFix"/><feColorMatrix in="SourceAlpha" values="0 0 0 0 0 0 0 0 0 0 0 0 0 0 0 0 0 0 127 0"/><feOffset/><feGaussianBlur stdDeviation="5"/><feColorMatrix values="0 0 0 0 0.0627451 0 0 0 0 0.0823529 0 0 0 0 0.145098 0 0 0 0.5 0"/><feBlend in2="BackgroundImageFix" result="effect1_dropShadow"/><feBlend in="SourceGraphic" in2="effect1_dropShadow" result="shape"/></filter><radialGradient id="paint0_angular" cx="0" cy="0" r="1" gradientUnits="userSpaceOnUse" gradientTransform="rotate(53.98 -151.205 472.65) scale(269.53)"><stop stop-color="#00B8FF" stop-opacity="0"/><stop offset="0" stop-color="#004D73"/><stop offset="1" stop-color="#97CBE1"/><stop offset="1" stop-color="#1C72C9"/><stop offset="1" stop-color="#fff"/></radialGradient></defs></svg>