<svg width="42" height="40" fill="none" xmlns="http://www.w3.org/2000/svg"><path d="M39.989 3.81l.998-.067a1 1 0 00-1.742-.602l.744.669zm-1.717 8.051a1 1 0 10-2 0h2zM21 14.286v1h1v-1h-1zM4.67 3.81l.936-.351a1 1 0 00-1.831-.096l.894.447zm10.615 24.76l.707.707a1 1 0 00-.39-1.655l-.317.948zM1.951 33.74v-1a1 1 0 00-.555 1.832l.555-.831zM35.193 6.459l-.741.67.36.4.531-.081-.15-.989zm3.798-2.582c.142 2.134.015 3.477-.352 4.513-.36 1.015-.987 1.835-2.059 2.862l1.384 1.444c1.173-1.124 2.05-2.201 2.56-3.638.502-1.415.61-3.078.463-5.314l-1.996.133zm-.72 9.968v-1.871h-2v1.87h2zm0-1.871v-.112h-2v.112h2zM20 12.38v1.905h2V12.38h-2zm9.233-9.571C24.067 2.81 20 7.31 20 12.38h2c0-4.07 3.273-7.571 7.233-7.571v-2zm7.039 11.034c0 11.96-10.038 22.299-21.939 22.299v2c13.045 0 23.939-11.275 23.939-24.3h-2zM3.732 4.16C5.196 8.065 10.693 15.286 21 15.286v-2c-9.254 0-14.14-6.475-15.394-9.827l-1.873.701zm.043-.797C.963 8.993.488 14.473 2.432 19.127c1.945 4.654 6.229 8.287 12.537 10.393l.633-1.897c-5.917-1.976-9.659-5.282-11.324-9.267C2.612 14.37 2.94 9.51 5.564 4.256l-1.79-.893zm10.803 24.502c-1.669 1.671-6.428 4.877-12.626 4.877v2c6.844 0 12.088-3.507 14.041-5.464l-1.415-1.413zM35.935 5.788a9.013 9.013 0 00-6.702-2.978v2c2.07 0 3.93.893 5.219 2.319l1.483-1.341zm-.592 1.659c1.984-.3 3.928-1.345 5.39-2.969l-1.488-1.337c-1.163 1.293-2.693 2.1-4.201 2.329l.3 1.977zM1.397 34.573c4.292 2.866 8.422 3.57 12.936 3.57v-2c-4.266 0-7.966-.657-11.825-3.233l-1.11 1.663z" fill="#fff"/></svg>