<svg width="40" height="41" fill="none" xmlns="http://www.w3.org/2000/svg"><path d="M14.586 33.335a1 1 0 00-.6-1.908l.6 1.908zM4.873 26.08l-.967-.253-.508 1.934.967.254.508-1.935zm19.841 12.968v1h2v-1h-2zm.048-13.334l-.107-.994a1 1 0 00-.598 1.704l.705-.71zm8.571-9.947h1v-.004l-1 .004zm-2.221-5.35l-.932-.362a1 1 0 00.224 1.068l.708-.706zm-.134-5.379l.913-.407a1 1 0 00-.638-.554l-.275.961zM25.185 7.15l-.252.968a1 1 0 00.795-.128l-.543-.84zm-10.37 0l-.542.84a1 1 0 00.794.128l-.252-.968zM9.022 5.038l-.275-.961a1 1 0 00-.638.554l.913.407zm-.134 5.379l.708.706a1 1 0 00.225-1.068l-.933.362zM6.667 15.81h1v-.003l-1 .003zm8.571 9.904l.706.709a1 1 0 00-.587-1.702l-.119.993zm-.952 4h1a.89.89 0 00-.003-.073l-.997.073zm-1 9.334v1h2v-1h-2zm.7-7.62c-1.653.52-2.748.476-3.51.225-.758-.25-1.323-.752-1.838-1.422-.26-.339-.496-.707-.738-1.099-.233-.377-.485-.8-.742-1.18-.502-.74-1.194-1.585-2.285-1.872l-.508 1.935c.338.088.675.379 1.138 1.06.225.332.438.69.696 1.108.249.404.529.843.853 1.265.652.85 1.52 1.682 2.798 2.104 1.274.42 2.817.387 4.736-.217l-.6-1.908zm12.728-1.88c0-1.545.102-3.203-1.247-4.543l-1.41 1.419c.648.643.657 1.335.657 3.124h2zm-1.845-2.84c2.38-.255 4.797-.823 6.604-2.501 1.837-1.707 2.86-4.385 2.86-8.44h-2c0 3.735-.936 5.78-2.222 6.975-1.316 1.222-3.184 1.734-5.456 1.978l.214 1.989zm9.464-10.945a8.612 8.612 0 00-2.513-6.052l-1.416 1.412a6.611 6.611 0 011.93 4.647l2-.007zm-2.29-4.984a7.985 7.985 0 00.54-3.09l-2 .05a5.988 5.988 0 01-.403 2.316l1.864.724zm.54-3.09a7.988 7.988 0 00-.691-3.058l-1.827.815c.323.723.5 1.502.519 2.293l2-.05zm-1.605-2.65a48.433 48.433 0 00.271-.963l-.004-.001-.008-.003a1.275 1.275 0 00-.065-.015 3.036 3.036 0 00-.503-.055 5.463 5.463 0 00-1.28.135c-1.087.232-2.647.817-4.747 2.173l1.086 1.68c1.944-1.256 3.28-1.727 4.079-1.897a3.5 3.5 0 01.808-.092.884.884 0 01.128.01c.007 0 .008 0 0 0a.562.562 0 01-.032-.01h-.006s-.001-.001.273-.963zm-5.54 1.143a21.566 21.566 0 00-10.875 0l.504 1.936a19.557 19.557 0 019.866 0l.504-1.936zm-10.08.128c-2.1-1.356-3.66-1.94-4.748-2.173A5.459 5.459 0 009.332 4a3.03 3.03 0 00-.503.056 1.548 1.548 0 00-.065.015l-.008.003H8.75l-.002.001c-.001 0-.002 0 .273.962S9.296 6 9.295 6h-.002l-.003.002-.007.002a.704.704 0 01-.026.006c-.007.002-.007.001 0 0 .014-.002.056-.007.128-.01.143-.003.409.008.808.093.798.17 2.135.641 4.08 1.897l1.085-1.68zm-7.25-1.68a7.987 7.987 0 00-.691 3.06l2 .049c.019-.791.195-1.57.518-2.293l-1.826-.815zm-.691 3.06a7.987 7.987 0 00.54 3.089l1.864-.724a5.986 5.986 0 01-.405-2.316l-2-.05zm.763 2.02a8.61 8.61 0 00-1.864 2.801l1.849.762a6.61 6.61 0 011.431-2.15L8.18 9.71zm-1.864 2.801a8.61 8.61 0 00-.65 3.302l2-.006a6.61 6.61 0 01.499-2.534l-1.85-.762zm-.65 3.299c0 4.03 1.025 6.683 2.864 8.379 1.804 1.663 4.218 2.234 6.59 2.518l.237-1.986c-2.28-.273-4.152-.787-5.471-2.003-1.284-1.184-2.22-3.204-2.22-6.908h-2zm8.866 9.196c-.687.685-1.012 1.563-1.161 2.388-.149.827-.135 1.676-.082 2.394l1.994-.147c-.047-.644-.05-1.304.056-1.892.106-.589.307-1.03.605-1.326l-1.412-1.417zm-1.246 4.708v9.334h2v-9.334h-2zm13.428 9.334v-9.5h-2v9.5h2z" fill="#fff"/></svg>