<svg width="42" height="36" fill="none" xmlns="http://www.w3.org/2000/svg"><path d="M31.884 34.463l-.652.758a1 1 0 00.684.242l-.032-1zM28.7 30.027a1 1 0 00-1.57 1.24l1.57-1.24zm1.368-1.337l-.348-.938a.952.952 0 00-.04.016l.388.922zm-4.73 1.402l-.167-.985c-.006 0-.01.002-.016.003l.184.983zm-8.447-.032l-.19.982.007.001.183-.983zm-4.794-1.402l-.364.93v.001l.364-.931zm-2.381-1.11l-.556.832a.991.991 0 00.067.041l.489-.872zm-.294-.163l.555-.831a1 1 0 00-.107-.063l-.448.894zm-.13-.097l.707-.707a1 1 0 00-.221-.167l-.486.874zm5.58 3.913a1 1 0 00-1.57-1.239l1.57 1.24zm-4.755 3.262l-.032 1a1 1 0 00.694-.25l-.662-.75zm-8.164-6.132h-1a1 1 0 00.013.16l.987-.16zM6.65 5.234l-.6-.8a1 1 0 00-.337.451l.937.35zm9.165-3.424l.995-.095a1 1 0 00-.973-.905l-.022 1zm-.67 3.52a1 1 0 101.992-.19l-1.991.19zm9.593-.092a1 1 0 001.984.255l-1.984-.255zm1.449-3.428l-.022-1a1 1 0 00-.97.873l.992.127zm9.165 3.425l.937-.35a1 1 0 00-.337-.45l-.6.8zm4.697 23.096l.987.16c.008-.053.013-.106.013-.16h-1zm-21.82-6.653l-1-.017v.017h1zm13.656 12.785l.653-.758-.002-.001a.31.31 0 01-.006-.005l-.024-.021-.095-.082a76.227 76.227 0 01-1.468-1.312c-.88-.809-1.811-1.71-2.243-2.257l-1.57 1.24c.548.693 1.6 1.7 2.461 2.49a79.496 79.496 0 001.507 1.347l.099.086.026.022a2.075 2.075 0 01.009.008l.653-.757zm1.384-8.532a17.645 17.645 0 01-3.549 1.821l.696 1.875a19.64 19.64 0 003.953-2.026l-1.1-1.67zm-3.588 1.837c-1.566.658-3.058 1.091-4.51 1.339l.336 1.971c1.613-.274 3.252-.753 4.948-1.466l-.774-1.844zm-4.526 1.342c-2.988.56-5.73.405-8.08-.033l-.367 1.966c2.543.475 5.54.646 8.815.032l-.368-1.965zm-8.074-.032a26.403 26.403 0 01-4.62-1.352l-.728 1.863a28.386 28.386 0 004.969 1.453l.379-1.964zm-4.62-1.352a18.146 18.146 0 01-2.257-1.05l-.977 1.745c.868.486 1.728.863 2.505 1.168l.73-1.863zm-2.19-1.009a2.199 2.199 0 00-.255-.144c-.055-.028-.05-.027-.039-.02l-1.11 1.664c.109.073.212.123.255.144.055.028.049.026.038.019l1.112-1.663zm-.401-.226c.03.015.064.037.099.064.028.023.048.044.03.026l-1.414 1.414c.055.055.179.18.39.285l.895-1.79zm-.092-.077a13.13 13.13 0 01-.82-.496l-.007-.005-.572.82-.574.82h.002l.001.002.006.003.016.011a5.288 5.288 0 00.251.165c.17.107.414.255.725.428l.972-1.748zm3.523 3.548c-.434.551-1.37 1.471-2.25 2.296A84.138 84.138 0 019.58 33.6l-.094.084c-.01.01-.02.017-.025.021l-.006.006v.001h-.001l.662.75.662.75v-.001l.002-.002.007-.006.026-.023.099-.088a76.735 76.735 0 001.505-1.376c.861-.806 1.91-1.827 2.453-2.516l-1.57-1.239zm-3.153 3.502c-3.286-.105-5.052-1.48-6.019-2.756a6.872 6.872 0 01-.974-1.792 5.774 5.774 0 01-.215-.746v-.003.001a.026.026 0 000 .003l-.987.16a79.945 79.945 0 00-.986.163v.003a1.253 1.253 0 00.019.099 7.765 7.765 0 00.29 1.003 8.872 8.872 0 001.259 2.316c1.312 1.733 3.628 3.423 7.55 3.547l.063-1.998zM2.952 28.33c0-5.124 1.15-10.801 2.316-15.232a96.813 96.813 0 011.598-5.421 74.984 74.984 0 01.717-2.087l.003-.006v-.001l-.937-.35-.937-.349v.001l-.001.002a1.706 1.706 0 00-.014.038 26.927 26.927 0 00-.193.538c-.13.371-.317.911-.54 1.591a98.808 98.808 0 00-1.63 5.535C2.15 17.082.952 22.953.952 28.331h2zM7.25 6.034c2.221-1.665 4.383-2.471 5.98-2.861.8-.195 1.457-.286 1.906-.328a8.473 8.473 0 01.657-.035h.001l.021-1 .021-1h-.003a1.515 1.515 0 00-.074 0c-.042 0-.102 0-.177.003-.15.005-.364.016-.631.04-.535.05-1.29.156-2.194.377-1.81.441-4.232 1.348-6.707 3.204l1.2 1.6zm7.57-4.13l.326 3.426 1.99-.19-.326-3.425-1.99.19zm11.9 3.59l.457-3.556-1.984-.254-.457 3.555 1.984.255zm-.535-3.683l.021 1h-.002.028c.025 0 .066 0 .122.002.112.004.285.013.51.033.45.042 1.106.133 1.905.328 1.598.39 3.76 1.196 5.98 2.862l1.2-1.6c-2.475-1.857-4.896-2.763-6.706-3.205a15.322 15.322 0 00-2.194-.376 10.459 10.459 0 00-.877-.044h-.008l.02 1zm9.165 3.425l-.937.349v.001l.002.006.01.026.038.103.145.408c.127.359.308.885.525 1.55a96.82 96.82 0 011.598 5.421c1.166 4.431 2.316 10.108 2.316 15.232h2c0-5.378-1.2-11.249-2.382-15.74a98.746 98.746 0 00-1.631-5.535 77.025 77.025 0 00-.732-2.13l-.011-.03-.003-.007v-.003h-.001l-.937.349zm4.697 23.096l-.987-.16v-.004.003l-.006.03a5.768 5.768 0 01-.21.717 6.877 6.877 0 01-.973 1.79c-.967 1.277-2.733 2.652-6.02 2.757l.064 1.998c3.922-.124 6.238-1.815 7.55-3.547a8.873 8.873 0 001.26-2.316 7.764 7.764 0 00.29-1.003 4.102 4.102 0 00.017-.091v-.008l.001-.003v-.002l-.986-.16zM14.9 17.057c-2.495 0-4.327 2.166-4.327 4.62h2c0-1.524 1.104-2.62 2.327-2.62v-2zm-4.327 4.62c0 2.462 1.87 4.621 4.327 4.621v-2c-1.197 0-2.327-1.102-2.327-2.62h-2zm4.327 4.621c2.495 0 4.326-2.166 4.326-4.62h-2c0 1.525-1.103 2.62-2.326 2.62v2zm4.326-4.604c.041-2.483-1.845-4.637-4.326-4.637v2c1.237 0 2.351 1.108 2.327 2.604l2 .033zm7.579-4.637c-2.495 0-4.327 2.166-4.327 4.62h2c0-1.524 1.103-2.62 2.327-2.62v-2zm-4.327 4.62c0 2.462 1.87 4.621 4.327 4.621v-2c-1.197 0-2.327-1.102-2.327-2.62h-2zm4.327 4.621c2.495 0 4.326-2.166 4.326-4.62h-2c0 1.525-1.103 2.62-2.326 2.62v2zm4.326-4.62c0-2.455-1.831-4.62-4.326-4.62v2c1.223 0 2.326 1.095 2.326 2.62h2zM10.594 9.49c3.957-2.157 7.215-3.184 10.412-3.186 3.197-.001 6.45 1.022 10.398 3.185l.961-1.753c-4.114-2.255-7.706-3.434-11.36-3.432-3.653.002-7.248 1.184-11.368 3.43l.957 1.756z" fill="#2EB5E9"/></svg>